<svg width="1440" height="1024" viewBox="0 0 1440 1024" fill="none" xmlns="http://www.w3.org/2000/svg">
<path d="M0 879.065C14.4224 996.774 60.3494 1086.5 184.094 968.786C263.291 893.451 1036.12 803.253 549.8 780.527C247.615 766.405 414.167 371.774 1025.1 392.752C1758.88 417.948 1338.36 86.825 1128.94 60.02C961.411 38.5759 1059.14 11.0716 1128.94 0" stroke="black" stroke-opacity="0.26"/>
<path d="M0 212.569C68 328.671 203.5 312.878 193 258.669C182.5 204.459 119 245.863 102 166.47C85 87.0766 74 -16.245 142 11.5C196.4 33.696 210 29.8792 210 0" stroke="black" stroke-opacity="0.26"/>
<path d="M1174.9 1024C1034.53 986.571 1287.49 823.124 1340.22 848.581C1446.56 899.923 1390.54 698.832 1314.91 698.832C1266.42 698.832 1414.98 609.391 1440 599" stroke="black" stroke-opacity="0.26"/>
</svg>
