<?xml version="1.0" encoding="UTF-8"?>
<svg version="1.1" xmlns="http://www.w3.org/2000/svg" width="247" height="168">
<path d="M0 0 C4.39717925 -1.28350097 7.6252777 -1.45337997 12 0 C16.69803874 4.40538682 20.07090398 10.10231454 23.42944336 15.55297852 C25.5013062 18.78106513 27.7705019 21.87870266 30 25 C30.33 16.75 30.66 8.5 31 0 C34.63 0 38.26 0 42 0 C42.495 12.375 42.495 12.375 43 25 C45.041875 22.174375 47.08375 19.34875 49.1875 16.4375 C49.82067139 15.56150146 50.45384277 14.68550293 51.10620117 13.78295898 C51.62158447 13.06954346 52.13696777 12.35612793 52.66796875 11.62109375 C53.23733154 10.84306396 53.80669434 10.06503418 54.39331055 9.26342773 C55.41286787 7.82712384 56.3939901 6.36210779 57.31958008 4.86352539 C58.53125 2.9375 58.53125 2.9375 61 0 C64.11328125 -0.68359375 64.11328125 -0.68359375 67.3125 -0.4375 C68.91544922 -0.34275391 68.91544922 -0.34275391 70.55078125 -0.24609375 C71.76314453 -0.12427734 71.76314453 -0.12427734 73 0 C69.45765043 6.52903647 65.18947792 12.36524073 60.77734375 18.328125 C57.53235251 22.75516642 54.61836281 27.17399796 52 32 C53.43614008 34.02181109 54.87373301 36.04255883 56.3125 38.0625 C56.75384277 38.68286133 57.19518555 39.30322266 57.64990234 39.94238281 C60.10665711 43.38511171 62.58813247 46.80627236 65.11328125 50.19921875 C65.61625732 50.87654053 66.1192334 51.5538623 66.63745117 52.25170898 C67.61926979 53.57062994 68.60503738 54.88662158 69.5949707 56.19946289 C73 60.77910725 73 60.77910725 73 63 C68.63452281 64.18425179 65.33850291 64.38222145 61 63 C56.63730415 58.92789224 53.60095262 53.57526026 50.59228516 48.46875 C48.25582396 44.84619624 45.58640693 41.44854258 43 38 C42.67 46.25 42.34 54.5 42 63 C38.37 63 34.74 63 31 63 C30.505 50.625 30.505 50.625 30 38 C27.2465625 41.6815625 27.2465625 41.6815625 24.4375 45.4375 C23.32341288 46.90532468 22.20893087 48.37284987 21.09375 49.83984375 C19.30331622 52.21227559 17.63932523 54.56176527 16.03125 57.06640625 C14.47672632 59.44010295 13.24728292 61.26517281 11 63 C7.21354677 63.70673582 3.79781918 63.55628093 0 63 C1.46566417 58.64305296 3.7039871 55.57873289 6.5625 52 C11.6715519 45.5238298 16.37328052 38.82832271 21 32 C17.91810581 26.31964601 14.3408435 21.19079984 10.5 16 C6.6591565 10.80920016 3.08189419 5.68035399 0 0 Z " fill="#FFFFFF" transform="translate(0,30)"/>
<path d="M0 0 C6.1584962 3.67141119 11.95296679 7.91128076 14.25 14.9375 C15.6722702 22.11604488 15.74445509 28.38089354 12.25 34.9375 C8.46808646 40.545509 3.92523753 45.18896167 -2.75 46.9375 C-10.62868465 47.78687493 -15.31679951 47.12315735 -22.75 43.9375 C-23.08 51.5275 -23.41 59.1175 -23.75 66.9375 C-27.05 66.9375 -30.35 66.9375 -33.75 66.9375 C-33.75 44.8275 -33.75 22.7175 -33.75 -0.0625 C-30.45 -0.0625 -27.15 -0.0625 -23.75 -0.0625 C-23.42 0.5975 -23.09 1.2575 -22.75 1.9375 C-21.38875 1.195 -21.38875 1.195 -20 0.4375 C-13.62442864 -2.28378046 -6.55471377 -1.8571689 0 0 Z M-19.4921875 11.31640625 C-23.17109194 15.10972638 -24.6808449 18.51750568 -24.9140625 23.80078125 C-24.53773451 28.70200532 -22.34463626 31.32934928 -19 34.75 C-15.28653665 37.24944649 -13.21312237 37.9375 -8.75 37.9375 C-3.53726879 36.31975583 -0.27820911 34.08833425 3.25 29.9375 C4.49266632 26.20950105 4.77902513 22.80967006 4.25 18.9375 C1.99583187 14.59613915 -0.63275266 11.58430186 -4.75 8.9375 C-10.1032957 7.30823609 -14.99292485 7.75533065 -19.4921875 11.31640625 Z " fill="#FFFFFF" transform="translate(172.75,101.0625)"/>
<path d="M0 0 C0.99 0 1.98 0 3 0 C4.49311836 2.01869141 5.75463826 3.96455444 7.01171875 6.125 C7.57135063 7.05723389 7.57135063 7.05723389 8.14228821 8.00830078 C9.33442771 9.99953792 10.51101924 11.99947921 11.6875 14 C12.49183283 15.34955824 13.29715906 16.69852496 14.10351562 18.046875 C16.0806133 21.35782326 18.04381202 24.67665854 20 28 C20.60884033 27.05817871 21.21768066 26.11635742 21.8449707 25.14599609 C23.0067438 23.34891329 24.16883078 21.55203236 25.33276367 19.75634766 C27.3629436 16.60807885 29.34713279 13.4449283 31.23828125 10.2109375 C31.58826172 9.61821045 31.93824219 9.0254834 32.29882812 8.41479492 C33.26703136 6.76497848 34.22175104 5.10727126 35.17578125 3.44921875 C37.20334925 0.72698078 37.82621967 0.58381124 41 0 C42.14403614 5.90730363 43.28323669 11.81551146 44.41796875 17.72460938 C44.8046611 19.73463103 45.19267295 21.74439931 45.58203125 23.75390625 C46.14149622 26.64257233 46.69620767 29.53211676 47.25 32.421875 C47.42499023 33.31992859 47.59998047 34.21798218 47.78027344 35.14324951 C47.94043945 35.98381897 48.10060547 36.82438843 48.265625 37.69042969 C48.47880371 38.79629425 48.47880371 38.79629425 48.69628906 39.92449951 C49 42 49 42 49 46 C45.7 46 42.4 46 39 46 C37.68 39.4 36.36 32.8 35 26 C31.56637949 30.26762106 31.56637949 30.26762106 28.78125 34.76953125 C28.40613281 35.43017578 28.03101563 36.09082031 27.64453125 36.77148438 C26.87316397 38.14704548 26.11029501 39.52740249 25.35546875 40.91210938 C24.21875 42.89453125 24.21875 42.89453125 22 46 C20.68 46 19.36 46 18 46 C16.44433594 44.1640625 16.44433594 44.1640625 14.984375 41.625 C14.45585938 40.72265625 13.92734375 39.8203125 13.3828125 38.890625 C12.84398438 37.93671875 12.30515625 36.9828125 11.75 36 C11.19570313 35.04609375 10.64140625 34.0921875 10.0703125 33.109375 C8.7000874 30.74691793 7.34420274 28.37732941 6 26 C5.80664062 26.85722656 5.61328125 27.71445313 5.4140625 28.59765625 C4.08207507 34.44653174 2.73619915 40.25718743 1 46 C-2.3 46 -5.6 46 -9 46 C-4.10981667 17.37283778 -4.10981667 17.37283778 -2.25 7.25 C-2.02828125 6.03828125 -1.8065625 4.8265625 -1.578125 3.578125 C-1 1 -1 1 0 0 Z " fill="#FFFFFF" transform="translate(32,101)"/>
<path d="M0 0 C1.36125 0.7425 1.36125 0.7425 2.75 1.5 C3.08 0.84 3.41 0.18 3.75 -0.5 C7.05 -0.5 10.35 -0.5 13.75 -0.5 C13.75 14.68 13.75 29.86 13.75 45.5 C10.45 45.5 7.15 45.5 3.75 45.5 C3.42 44.84 3.09 44.18 2.75 43.5 C1.8425 43.995 0.935 44.49 0 45 C-5.84199284 47.47662577 -12.46131215 47.52101927 -18.5546875 45.87890625 C-25.40205333 42.88151848 -30.51616439 37.09012565 -33.25 30.1875 C-34.91059522 24.16784231 -34.72022099 18.02367014 -32.3046875 12.234375 C-25.60672024 0.61273643 -13.02862213 -5.61028423 0 0 Z M-19.25 10.5 C-22.44063372 13.17983621 -23.96082934 15.86825125 -24.6875 19.96875 C-24.88993442 24.16926421 -24.46897439 27.00730762 -22.75 30.875 C-19.14936093 34.65567102 -15.48320429 37.13664942 -10.19921875 37.73046875 C-5.42437965 37.48013738 -2.09640303 35.65033594 1.328125 32.3671875 C3.88737486 29.00641434 4.71453481 25.69198557 4.75 21.5 C3.99483337 17.17495475 2.51485857 14.30735071 -0.5 11.125 C-7.2214229 7.1532501 -12.43526778 6.70413046 -19.25 10.5 Z " fill="#FFFFFF" transform="translate(116.25,101.5)"/>
<path d="M0 0 C3.3 0 6.6 0 10 0 C10.33 7.92 10.66 15.84 11 24 C12.98 22.164375 14.96 20.32875 17 18.4375 C21.37983821 14.38861683 25.7677236 10.35569741 30.29296875 6.46875 C31.43543239 5.48576069 32.5631684 4.48540323 33.67578125 3.46875 C36.80242567 0.67571776 37.62078288 0 42 0 C42 14.85 42 29.7 42 45 C38.7 45 35.4 45 32 45 C31.505 32.625 31.505 32.625 31 20 C28.69 22.31 26.38 24.62 24 27 C22.74584496 28.14356351 21.47861038 29.2733302 20.1875 30.375 C16.1259441 33.87333233 12.15961027 37.46980602 8.19921875 41.08203125 C3.70672098 45 3.70672098 45 0 45 C0 30.15 0 15.3 0 0 Z " fill="#FFFFFF" transform="translate(74,48)"/>
<path d="M0 0 C3.3 0 6.6 0 10 0 C10 5.61 10 11.22 10 17 C16.93 17 23.86 17 31 17 C31 11.39 31 5.78 31 0 C34.3 0 37.6 0 41 0 C41 14.85 41 29.7 41 45 C37.7 45 34.4 45 31 45 C31 39.06 31 33.12 31 27 C24.07 27 17.14 27 10 27 C10 32.94 10 38.88 10 45 C6.7 45 3.4 45 0 45 C0 30.15 0 15.3 0 0 Z " fill="#FFFFFF" transform="translate(161,48)"/>
<path d="M0 0 C3.3 0 6.6 0 10 0 C10 4.29 10 8.58 10 13 C11.51980469 12.93039063 11.51980469 12.93039063 13.0703125 12.859375 C14.42184532 12.82183242 15.77341028 12.78543494 17.125 12.75 C17.79015625 12.71648438 18.4553125 12.68296875 19.140625 12.6484375 C24.29059027 12.54745779 27.03558557 13.79460453 31 17 C35.08142118 21.5226559 36.32364536 24.79146353 36.2109375 30.9453125 C35.72144252 35.71335617 33.46819043 38.79112677 29.9375 41.8125 C25.94130573 44.78838935 24.2536745 45.12249331 19.3359375 45.09765625 C18.3257959 45.09515869 17.3156543 45.09266113 16.27490234 45.09008789 C14.98793457 45.08098389 13.7009668 45.07187988 12.375 45.0625 C6.249375 45.0315625 6.249375 45.0315625 0 45 C0 30.15 0 15.3 0 0 Z M10 23 C10 26.96 10 30.92 10 35 C12.10304477 35.1080023 14.20766909 35.18558987 16.3125 35.25 C17.48425781 35.29640625 18.65601563 35.3428125 19.86328125 35.390625 C23.05551713 35.30686467 23.05551713 35.30686467 24.9296875 33.1796875 C26.43506698 30.11398767 25.91242998 28.22859839 25 25 C23.11153817 22.67133771 23.11153817 22.67133771 19.9609375 22.8046875 C18.18589844 22.83949219 18.18589844 22.83949219 16.375 22.875 C14.59222656 22.90207031 14.59222656 22.90207031 12.7734375 22.9296875 C11.40058594 22.96449219 11.40058594 22.96449219 10 23 Z " fill="#FFFFFF" transform="translate(211,48)"/>
<path d="M0 0 C3.20725636 2.35635161 4.66357394 3.54696044 6.0625 7.25 C6.61049067 11.55674357 6.78934677 15.00830343 4.5625 18.8125 C4.0675 19.286875 3.5725 19.76125 3.0625 20.25 C4.26631448 22.74361571 5.51678722 24.93143083 7.0625 27.25 C7.84573914 31.13607114 7.85438294 34.73028347 6 38.2890625 C2.48824222 42.77418792 -1.39813248 45.0514234 -6.9375 46.25 C-12.48833454 46.84473227 -17.04558339 45.85011534 -21.9375 43.25 C-24.83676382 40.72890103 -26.80955617 38.44191574 -28.9375 35.25 C-28.9375 34.26 -28.9375 33.27 -28.9375 32.25 C-25.56652617 30.75178941 -23.73307881 30.25 -19.9375 30.25 C-19.31875 31.054375 -18.7 31.85875 -18.0625 32.6875 C-16.1380134 35.4768981 -16.1380134 35.4768981 -13 36.1875 C-9.64117247 36.2560475 -7.78689303 36.04104705 -4.9375 34.25 C-4.04363836 31.70224694 -4.04363836 31.70224694 -3.9375 29.25 C-8.21596832 26.39768778 -11.833131 26.64774304 -16.9375 26.25 C-16.9375 22.95 -16.9375 19.65 -16.9375 16.25 C-13.3075 15.92 -9.6775 15.59 -5.9375 15.25 C-4.87212795 10.77297636 -4.87212795 10.77297636 -4.9375 8.25 C-11.72208325 7.55142623 -11.72208325 7.55142623 -17.5625 10.375 C-19.9375 12.25 -19.9375 12.25 -22.01171875 12.0703125 C-24.01409634 11.56010809 -25.98052532 10.91338125 -27.9375 10.25 C-27.64911525 6.88551128 -26.98629887 5.31210766 -24.875 2.625 C-17.41335414 -3.40782005 -8.68374374 -4.48843294 0 0 Z " fill="#FFFFFF" transform="translate(148.9375,48.75)"/>
<path d="M0 0 C13.53 0 27.06 0 41 0 C41 3.3 41 6.6 41 10 C36.05 10 31.1 10 26 10 C26.00785522 11.58252563 26.00785522 11.58252563 26.01586914 13.19702148 C26.03391901 17.0975663 26.04543195 20.9981074 26.05493164 24.89868164 C26.0599719 26.58944316 26.06680405 28.28020029 26.07543945 29.97094727 C26.08751857 32.39600707 26.09323123 34.82100944 26.09765625 37.24609375 C26.10281754 38.00651474 26.10797882 38.76693573 26.11329651 39.55039978 C26.11349238 41.3673257 26.06197277 43.18413127 26 45 C25.67 45.33 25.34 45.66 25 46 C21.7 46 18.4 46 15 46 C15 34.12 15 22.24 15 10 C10.05 10 5.1 10 0 10 C0 6.7 0 3.4 0 0 Z " fill="#FFFFFF" transform="translate(186,101)"/>
<path d="M0 0 C2.08260608 4.16521216 1.18585815 9.57490789 1.18530273 14.15649414 C1.18747275 16.16231375 1.20593767 18.16809424 1.22460938 20.17382812 C1.22750977 22.08905273 1.22750977 22.08905273 1.23046875 24.04296875 C1.23457764 25.20852295 1.23868652 26.37407715 1.24291992 27.57495117 C0.9746064 31.35803704 0.1571994 34.40112993 -1 38 C-4.96 37.505 -4.96 37.505 -9 37 C-10.33894669 31.15604862 -10.18410317 25.40572621 -10.1875 19.4375 C-10.19974609 18.30119141 -10.21199219 17.16488281 -10.22460938 15.99414062 C-10.22654297 14.90166016 -10.22847656 13.80917969 -10.23046875 12.68359375 C-10.23457764 11.68900146 -10.23868652 10.69440918 -10.24291992 9.66967773 C-9.92376572 6.16218913 -8.77097525 4.027967 -6.6875 1.25 C-4.40499953 -0.44074109 -2.76950575 -0.22455452 0 0 Z " fill="#0C9800" transform="translate(143,0)"/>
<path d="M0 0 C0.73476562 0.23460938 1.46953125 0.46921875 2.2265625 0.7109375 C3.07381878 3.42215759 3.53237321 4.94309144 3.2265625 7.7109375 C0.65287868 11.81433198 -2.12921642 15.16286381 -6.7734375 16.7109375 C-7.45830475 18.03501419 -8.12213953 19.37002991 -8.7734375 20.7109375 C-10.5859375 23.0234375 -10.5859375 23.0234375 -12.7734375 24.7109375 C-15.5234375 24.4609375 -15.5234375 24.4609375 -17.7734375 23.7109375 C-18.63620187 21.00760913 -19.04361044 19.48403331 -18.7734375 16.7109375 C-15.63419838 10.87049262 -7.13213407 -0.74334918 0 0 Z " fill="#0D9800" transform="translate(169.7734375,17.2890625)"/>
<path d="M0 0 C3.73555519 -0.5651578 4.89382035 -0.07749735 8.0078125 2.1953125 C9.05884542 3.15897997 10.09767185 4.13610058 11.125 5.125 C11.91197266 5.8365625 11.91197266 5.8365625 12.71484375 6.5625 C16.06427388 9.69994088 18.31489176 12.64828188 20 17 C19.6875 20.875 19.6875 20.875 19 24 C16.9140625 24.3828125 16.9140625 24.3828125 14 24 C11.50945905 22.2346505 9.47513959 20.08062605 7.375 17.875 C6.80265625 17.30523437 6.2303125 16.73546875 5.640625 16.1484375 C2.29620001 12.72623518 -0.26516081 9.54024828 -2 5 C-1.1875 2.125 -1.1875 2.125 0 0 Z " fill="#0C9800" transform="translate(106,18)"/>
<path d="M0 0 C2.99773701 1.15297577 4.00312605 2.0687521 5.4375 4.9375 C5.19675978 8.30786311 4.84951979 9.52548021 2.4375 11.9375 C-0.66597254 12.26765665 -2.72031176 12.44281294 -5.4375 10.8125 C-7.10913625 8.02643958 -7.02626624 6.11761138 -6.5625 2.9375 C-4.38841328 0.44132636 -3.31453648 -0.08084235 0 0 Z M-4.5625 3.9375 C-4.5625 5.5875 -4.5625 7.2375 -4.5625 8.9375 C-4.2325 8.9375 -3.9025 8.9375 -3.5625 8.9375 C-3.5625 7.2875 -3.5625 5.6375 -3.5625 3.9375 C-3.8925 3.9375 -4.2225 3.9375 -4.5625 3.9375 Z M2.4375 4.9375 C2.4375 7.9375 2.4375 7.9375 2.4375 7.9375 Z M-1.5625 7.9375 C-1.5625 8.5975 -1.5625 9.2575 -1.5625 9.9375 C-0.9025 9.6075 -0.2425 9.2775 0.4375 8.9375 C-0.2225 8.6075 -0.8825 8.2775 -1.5625 7.9375 Z " fill="#FFFFFF" transform="translate(238.5625,100.0625)"/>
</svg>
